<?xml version="1.0" encoding="UTF-8" standalone="no"?>
<!-- Created with Inkscape (http://www.inkscape.org/) -->

<svg
   width="210mm"
   height="297mm"
   viewBox="0 0 210 297"
   version="1.1"
   id="svg1192"
   inkscape:version="1.1.2 (0a00cf5339, 2022-02-04)"
   sodipodi:docname="logotypo.svg"
   xmlns:inkscape="http://www.inkscape.org/namespaces/inkscape"
   xmlns:sodipodi="http://sodipodi.sourceforge.net/DTD/sodipodi-0.dtd"
   xmlns="http://www.w3.org/2000/svg"
   xmlns:svg="http://www.w3.org/2000/svg">
  <sodipodi:namedview
     id="namedview1194"
     pagecolor="#ffffff"
     bordercolor="#666666"
     borderopacity="1.0"
     inkscape:pageshadow="2"
     inkscape:pageopacity="0.0"
     inkscape:pagecheckerboard="0"
     inkscape:document-units="mm"
     showgrid="false"
     inkscape:zoom="0.48818743"
     inkscape:cx="396.36416"
     inkscape:cy="562.28404"
     inkscape:window-width="1920"
     inkscape:window-height="1049"
     inkscape:window-x="0"
     inkscape:window-y="31"
     inkscape:window-maximized="1"
     inkscape:current-layer="layer1" />
  <defs
     id="defs1189">
    <linearGradient
       id="SVGID_1_"
       gradientUnits="userSpaceOnUse"
       x1="516.44983"
       y1="804.77753"
       x2="1737.5862"
       y2="804.77753">
      <stop
         offset="0.2346"
         style="stop-color:#31102A"
         id="stop4" />
      <stop
         offset="0.6106"
         style="stop-color:#3EC0F0"
         id="stop6" />
    </linearGradient>
    <radialGradient
       id="SVGID_00000073709254500006517890000003834569514992241066_"
       cx="590.02118"
       cy="598.5188"
       r="69.720398"
       gradientUnits="userSpaceOnUse">
      <stop
         offset="0.2078"
         style="stop-color:#31102A"
         id="stop15" />
      <stop
         offset="0.2858"
         style="stop-color:#361A34"
         id="stop17" />
      <stop
         offset="0.4443"
         style="stop-color:#413752"
         id="stop19" />
      <stop
         offset="0.6667"
         style="stop-color:#4A6E8E"
         id="stop21" />
      <stop
         offset="0.8479"
         style="stop-color:#46A5CE"
         id="stop23" />
      <stop
         offset="1"
         style="stop-color:#3EC0F0"
         id="stop25" />
    </radialGradient>
    <radialGradient
       id="SVGID_00000126299476636412069340000011435641512527536784_"
       cx="591.44891"
       cy="598.5188"
       r="69.487099"
       gradientUnits="userSpaceOnUse">
      <stop
         offset="0.2078"
         style="stop-color:#31102A"
         id="stop30" />
      <stop
         offset="0.2858"
         style="stop-color:#361A34"
         id="stop32" />
      <stop
         offset="0.4443"
         style="stop-color:#413752"
         id="stop34" />
      <stop
         offset="0.6667"
         style="stop-color:#4A6E8E"
         id="stop36" />
      <stop
         offset="0.8479"
         style="stop-color:#46A5CE"
         id="stop38" />
      <stop
         offset="1"
         style="stop-color:#3EC0F0"
         id="stop40" />
    </radialGradient>
    <radialGradient
       id="SVGID_00000119114607165277637590000016485778888659549065_"
       cx="918.32953"
       cy="599.31958"
       r="68.488998"
       gradientUnits="userSpaceOnUse">
      <stop
         offset="0.2682"
         style="stop-color:#3EC0F0"
         id="stop51" />
      <stop
         offset="0.3341"
         style="stop-color:#40BAE9"
         id="stop53" />
      <stop
         offset="0.4291"
         style="stop-color:#45A9D4"
         id="stop55" />
      <stop
         offset="0.5417"
         style="stop-color:#4990B5"
         id="stop57" />
      <stop
         offset="0.6679"
         style="stop-color:#4A6E8E"
         id="stop59" />
      <stop
         offset="0.8053"
         style="stop-color:#454662"
         id="stop61" />
      <stop
         offset="0.9501"
         style="stop-color:#381D37"
         id="stop63" />
      <stop
         offset="1"
         style="stop-color:#31102A"
         id="stop65" />
    </radialGradient>
    <radialGradient
       id="SVGID_00000075159587949762273440000007853879137794965637_"
       cx="735.6936"
       cy="588.15808"
       r="129.1873"
       gradientUnits="userSpaceOnUse">
      <stop
         offset="0.3469"
         style="stop-color:#3EC0F0"
         id="stop70" />
      <stop
         offset="1"
         style="stop-color:#31102A"
         id="stop72" />
    </radialGradient>
  </defs>
  <g
     inkscape:label="Layer 1"
     inkscape:groupmode="layer"
     id="layer1">
    <g
       id="g85"
       transform="matrix(0.26458333,0,0,0.26458333,-206.2461,-73.65684)">
      <g
         id="g13">
        <g
           id="g11">
          <linearGradient
             id="linearGradient1120"
             gradientUnits="userSpaceOnUse"
             x1="516.44983"
             y1="804.77753"
             x2="1737.5862"
             y2="804.77753">
            <stop
               offset="0.2346"
               style="stop-color:#31102A"
               id="stop1116" />
            <stop
               offset="0.6106"
               style="stop-color:#3EC0F0"
               id="stop1118" />
          </linearGradient>
          <path
             class="st0"
             d="m 1615.9,822.6 c 9.7,0 18.8,-4 27.3,-12 8.5,-8 12.7,-17.5 12.7,-28.4 0,-10.9 -4.2,-20.4 -12.5,-28.5 -8.3,-8.1 -17.9,-12.1 -28.9,-12.1 h -7.3 v 127.1 h 5.4 v -40.3 l 38.5,40.3 h 7.3 l -43.7,-46.1 z m -3.2,-76.1 h 2.2 c 9.3,0 17.5,3.6 24.7,10.7 7.2,7.1 10.8,15.5 10.8,25.1 0,9.6 -3.5,17.9 -10.5,24.9 -7,7 -15.1,10.5 -24.2,10.5 h -3.1 v -71.2 z m -748,86.2 c 0,9.7 -3.1,17.7 -9.2,24 -6.2,6.3 -13.8,9.4 -23,9.4 -9.2,0 -16.8,-3.2 -23,-9.5 -6.2,-6.3 -9.3,-14.3 -9.3,-23.9 v -91.2 h -5.6 v 91.3 c 0,11 3.6,20.1 10.8,27.3 7.2,7.2 16,10.8 26.4,10.8 h 1.7 c 10.3,0 19,-3.6 26.2,-10.9 7.2,-7.3 10.8,-16.5 10.8,-27.5 v -91 h -5.6 v 91.2 z M 690.9,807.9 c -3.4,-3.1 -7.3,-6 -11.5,-8.8 -4.2,-2.8 -8.5,-5.4 -12.7,-7.8 -4.2,-2.4 -8,-4.9 -11.4,-7.4 -7.9,-5.9 -11.9,-12.4 -11.9,-19.5 v -0.8 c 0,-6 1.9,-10.7 5.8,-14.2 3.9,-3.4 8.6,-5.2 14.2,-5.2 5.5,0 10.5,1.4 15,4.1 4.5,2.7 8,6.4 10.6,11.2 v -8.6 c -6.1,-7.7 -14.3,-11.5 -24.7,-11.5 -7.5,0 -13.7,2.1 -18.8,6.3 -5.1,4.2 -7.6,10.2 -7.6,18.1 v 1.2 c 0,5.1 1.5,9.8 4.4,14.1 2.9,4.3 6.6,7.9 11,10.7 4.4,2.8 9.2,5.9 14.4,9.2 5.2,3.3 10,6.4 14.4,9.4 4.4,3 8.1,6.8 11,11.5 2.9,4.7 4.4,9.9 4.4,15.5 v 1 c 0,9 -3.1,16.3 -9.3,21.7 -6.2,5.4 -13.6,8.1 -22,8.1 -8.5,0 -15.6,-2 -21.3,-6 -5.7,-4 -10,-9.2 -13,-15.7 v 9.2 c 7.8,11.6 18.8,17.5 32.9,17.5 10.7,0 19.7,-3.2 27,-9.5 7.3,-6.3 10.9,-14.9 10.9,-25.6 v -1.7 c 0,-5.4 -1.1,-10.4 -3.3,-14.9 -2.2,-4.7 -5.1,-8.5 -8.5,-11.6 z m -76.3,7.9 v 0 c -2.8,0.2 -10.7,0.7 -13.4,1 -8.2,0.9 -16.4,2.3 -24.3,4.5 -2.8,0.8 -5.6,1.6 -8.4,2.5 V 746.5 H 614 v -4.9 h -51.2 -10.7 v 0.3 c 1.2,0.6 2.4,0.9 3.7,1.2 2.4,0.6 4.1,2.2 5.1,4 1.3,2 1.9,4.4 1.9,6.8 v 71.9 c -0.5,0.2 -1.1,0.4 -1.6,0.6 -15,5.3 -29.7,11.5 -43.7,19 -0.2,0.1 -0.4,0.2 -0.6,0.3 -0.3,0.2 -0.5,0.5 -0.4,0.9 0.1,0.3 0.4,0.5 0.8,0.5 0.2,0 0.4,0 0.6,-0.1 1,-0.1 2,-0.3 2.9,-0.4 4,-0.6 8.1,-1.4 12.1,-2.2 10.1,-2.2 20.1,-4.8 30,-7.6 v 19.8 c 0,2.5 -0.6,4.9 -2,7 -1.1,1.7 -2.7,3.3 -5,3.8 -1.2,0.3 -2.4,0.5 -3.7,1.2 v 0.3 h 10.7 4.6 46.5 V 864 h -45.6 v -29 c 8.9,-2.6 17.7,-5.7 26.6,-8.5 5.3,-1.7 16.8,-4.9 26,-6.1 v 0 c 17.1,-2.7 11.3,-4.3 -6.4,-4.6 z m 361.6,52.9 h 5.6 V 741.6 h -5.6 z M 707.7,746.5 H 737 v 122.2 h 5.6 V 746.5 h 29 v -4.9 h -63.9 z m 200.2,-4.9 h -5.6 v 127.1 h 5.6 v -46.3 h 1.4 c 10.3,0 19.7,-4 28.2,-11.9 8.5,-7.9 12.8,-17.3 12.8,-28.3 0,-11 -4.1,-20.5 -12.4,-28.6 -8.3,-8 -18.3,-12 -30,-12 z m 26.2,65.6 c -7.1,7 -15.3,10.5 -24.8,10.5 h -1.4 v -71.2 h 1.4 c 9.3,0 17.5,3.6 24.7,10.7 7.2,7.1 10.8,15.5 10.8,25.1 -0.1,9.5 -3.7,17.8 -10.7,24.9 z m 474.9,58.3 c 6.2,4.3 15.9,4.3 22.2,0 -6.2,-4.4 -15.9,-4.4 -22.2,0 z m -26.1,-123.9 v 113 l -93.5,-114.9 v 129 h 4.9 V 755.5 l 93.5,115.1 V 753.7 c 0,-2.4 0.6,-4.8 1.9,-6.8 1.1,-1.7 2.7,-3.4 5.1,-4 1.2,-0.3 2.4,-0.5 3.7,-1.2 v -0.3 h -10.7 -4.9 z m -274.5,113 -93.5,-114.9 v 129 h 4.9 V 755.5 l 93.5,115.1 v -129 h -4.9 z m 482.9,-33.8 c -2.3,0.2 -4.5,0.4 -6.8,0.7 -7.7,1 -15.3,2.4 -23,3.8 l -42.4,-86.8 -58.9,121 c -1,2 -4,6.7 -8.4,7.7 -1.2,0.3 -2.4,0.5 -3.7,1.2 v 0.3 h 7.6 v 0 0 h 5.3 l 23.7,-48.5 2.2,-4.9 31.7,-65.1 32,65.1 2,4.9 3.1,6.3 c -4.7,0.9 -9.3,1.8 -13.9,2.7 -11.5,2.1 -19.4,4.2 -34.8,5.8 -3.6,0.4 -8.5,1.3 -13.1,1.6 v 0 c -7.6,0.4 -26.3,1.1 -3.1,6.3 v 0 c 8,1.7 16.3,1.7 24.4,1 7.3,-0.6 14.6,-1.4 21.9,-2.8 7.2,-1.4 14.2,-3.3 21.2,-5.4 0.6,-0.2 1.2,-0.4 1.8,-0.6 l 16.7,33.6 h 5.9 l -17.3,-35.4 c 9,-3.1 17.8,-6.7 26.2,-11.2 0.3,-0.1 0.4,-0.5 0.3,-0.8 0,-0.3 -0.3,-0.5 -0.6,-0.5 z m -453.5,47.9 h 5.3 l 23.7,-48.5 h 68 l 24.1,48.5 h 5.9 l -63.5,-130.1 z m 31.2,-53.4 31.7,-65.1 32,65.1 z m 504.7,-73.7 v 4.9 h 29.3 v 122.2 h 5.6 V 746.5 h 29 v -4.9 z"
             id="path9"
             style="fill:url(#SVGID_1_)" />
        </g>
      </g>
      <g
         id="g83">
        <g
           id="g45">
          <radialGradient
             id="radialGradient1137"
             cx="590.02118"
             cy="598.5188"
             r="69.720398"
             gradientUnits="userSpaceOnUse">
            <stop
               offset="0.2078"
               style="stop-color:#31102A"
               id="stop1125" />
            <stop
               offset="0.2858"
               style="stop-color:#361A34"
               id="stop1127" />
            <stop
               offset="0.4443"
               style="stop-color:#413752"
               id="stop1129" />
            <stop
               offset="0.6667"
               style="stop-color:#4A6E8E"
               id="stop1131" />
            <stop
               offset="0.8479"
               style="stop-color:#46A5CE"
               id="stop1133" />
            <stop
               offset="1"
               style="stop-color:#3EC0F0"
               id="stop1135" />
          </radialGradient>
          <path
             style="fill:url(#SVGID_00000073709254500006517890000003834569514992241066_)"
             d="m 742.8,576.5 c -2.5,-6.9 -10.3,-9 -16.7,-9.8 -9.5,-1.1 -23,-1.2 -32.4,-0.7 -6.2,0.4 -23.7,1.6 -29.8,2.3 -18.2,1.9 -36.4,5.1 -54,9.9 -11.7,3.2 -23.2,7 -34.6,10.9 -33.3,11.7 -65.9,25.4 -97.1,41.9 -0.4,0.2 -0.9,0.5 -1.4,0.8 -0.7,0.4 -1,1.2 -0.8,1.9 0.2,0.7 0.9,1.2 1.7,1.1 0.4,0 0.9,-0.1 1.3,-0.1 2.2,-0.3 4.4,-0.6 6.5,-0.9 9,-1.3 18,-3.1 26.9,-4.9 23.6,-5 46.8,-11.2 69.9,-17.7 23,-6.4 45.4,-14.4 68.1,-21.5 17.6,-5.5 66.3,-18.8 82.2,-12.8 0.8,0.4 1.4,0.8 1.9,1.3 1.1,1.2 2.6,1.8 4.2,1.8 h 4.8 c -0.1,-1.2 -0.3,-2.4 -0.7,-3.5 z"
             id="path28" />
          <radialGradient
             id="radialGradient1152"
             cx="591.44891"
             cy="598.5188"
             r="69.487099"
             gradientUnits="userSpaceOnUse">
            <stop
               offset="0.2078"
               style="stop-color:#31102A"
               id="stop1140" />
            <stop
               offset="0.2858"
               style="stop-color:#361A34"
               id="stop1142" />
            <stop
               offset="0.4443"
               style="stop-color:#413752"
               id="stop1144" />
            <stop
               offset="0.6667"
               style="stop-color:#4A6E8E"
               id="stop1146" />
            <stop
               offset="0.8479"
               style="stop-color:#46A5CE"
               id="stop1148" />
            <stop
               offset="1"
               style="stop-color:#3EC0F0"
               id="stop1150" />
          </radialGradient>
          <path
             style="fill:url(#SVGID_00000126299476636412069340000011435641512527536784_)"
             d="m 1014.3,571.5 c -0.2,-0.7 -0.9,-1.2 -1.7,-1.2 -5.7,0.5 -11.3,1.1 -16.9,1.8 -35.7,4.5 -71.1,10.8 -106.4,17.3 -28.8,5.3 -57.9,12.5 -86.9,16.3 -16.5,2 -43.5,7.4 -58.4,1.5 -2.8,-1.2 -5.3,-3.1 -5.9,-6.2 -0.1,-0.6 -0.1,-1.3 -0.1,-1.9 h -1.6 c -4.5,0 -7.8,4.7 -5.9,8.8 0,0 0,0.1 0,0.1 4.7,9.8 17.1,13.8 26.7,16.4 21.4,5.4 43.6,5.3 65.4,3.6 18.3,-1.4 36.6,-3.5 54.6,-7 17.9,-3.4 35.6,-8.1 53,-13.6 28.6,-9 56.7,-19.8 83.1,-33.9 0.9,-0.4 1.3,-1.2 1,-2 z"
             id="path43" />
        </g>
        <polygon
           class="st3"
           points=""
           id="polygon47" />
        <polygon
           class="st4"
           points=""
           id="polygon49" />
        <radialGradient
           id="radialGradient1174"
           cx="918.32953"
           cy="599.31958"
           r="68.488998"
           gradientUnits="userSpaceOnUse">
          <stop
             offset="0.2682"
             style="stop-color:#3EC0F0"
             id="stop1158" />
          <stop
             offset="0.3341"
             style="stop-color:#40BAE9"
             id="stop1160" />
          <stop
             offset="0.4291"
             style="stop-color:#45A9D4"
             id="stop1162" />
          <stop
             offset="0.5417"
             style="stop-color:#4990B5"
             id="stop1164" />
          <stop
             offset="0.6679"
             style="stop-color:#4A6E8E"
             id="stop1166" />
          <stop
             offset="0.8053"
             style="stop-color:#454662"
             id="stop1168" />
          <stop
             offset="0.9501"
             style="stop-color:#381D37"
             id="stop1170" />
          <stop
             offset="1"
             style="stop-color:#31102A"
             id="stop1172" />
        </radialGradient>
        <path
           style="fill:url(#SVGID_00000119114607165277637590000016485778888659549065_)"
           d="m 947.1,682.9 h 6.7 10.5 20.7 v -0.7 c -3.3,-1.7 -6.7,-2.4 -10,-3.2 -12.5,-2.9 -20.6,-16.6 -23.2,-21.6 L 823.6,395 v 0 0 l -1.1,34.1 v 0 0 z"
           id="path68" />
        <radialGradient
           id="radialGradient1181"
           cx="735.6936"
           cy="588.15808"
           r="129.1873"
           gradientUnits="userSpaceOnUse">
          <stop
             offset="0.3469"
             style="stop-color:#3EC0F0"
             id="stop1177" />
          <stop
             offset="1"
             style="stop-color:#31102A"
             id="stop1179" />
        </radialGradient>
        <polygon
           style="fill:url(#SVGID_00000075159587949762273440000007853879137794965637_)"
           points="823.6,395 690.4,668.4 597.3,668.4 597.3,682.9 699.1,682.9 822.5,429.1 "
           id="polygon75" />
        <g
           id="g81">
          <path
             class="st4"
             d="M 597.3,668.4 V 350.6 H 699.8 V 336.1 H 581.3 552.2 v 0.7 c 3.3,1.7 6.7,2.4 10,3.2 6.6,1.6 11.1,6.1 14,10.8 3.5,5.5 5.1,12 5.1,18.5 v 280.1 c 0,6.8 -1.7,13.5 -5.4,19.2 -3,4.5 -7.4,8.9 -13.8,10.4 -3.3,0.8 -6.6,1.5 -10,3.2 v 0.7 h 29.2 2 14 z"
             id="path77" />
          <polygon
             class="st4"
             points="823.6,395 822.5,429.1 "
             id="polygon79" />
        </g>
      </g>
    </g>
  </g>
</svg>
